<svg width="95" height="38" viewBox="0 0 95 38" fill="none" xmlns="http://www.w3.org/2000/svg">
<path fill-rule="evenodd" clip-rule="evenodd" d="M86.3668 1.8846C89.0732 2.86705 90.8043 3.87717 91.8311 5.28082C92.8485 6.67165 93.2361 8.53605 93.0387 11.38C92.7018 16.2326 89.3047 19.7387 84.4678 20.4195C82.2025 20.7383 80.3264 20.0446 78.6277 18.8826C77.1834 17.8947 75.8983 16.5923 74.6218 15.2984L74.6217 15.2983L74.6216 15.2982L74.6215 15.2981C74.3781 15.0514 74.1349 14.8049 73.891 14.561C72.3478 13.0178 71.0046 11.7602 69.4235 10.8779C67.8276 9.98737 66.0184 9.49381 63.5535 9.41485C61.4826 9.34852 59.8874 9.3528 58.1899 9.76559C56.4919 10.1785 54.725 10.9912 52.2767 12.488C48.684 14.6843 45.7863 17.771 42.9432 20.7995L42.9224 20.8216C40.0559 23.875 37.2427 26.8677 33.7765 28.9881L33.4171 29.2081L33.417 29.2081C29.4479 31.6375 26.9149 33.1879 22.4044 34.4326C18.4353 35.528 15.3927 36.0622 12.0375 36.1085V34.9146H11.5375V36.1118C10.2904 36.1111 8.99274 36.0448 7.58272 35.9166C5.95309 35.7685 4.38735 35.3656 3.19538 34.6265C2.01958 33.8975 1.21171 32.8474 1.03394 31.3554C0.857895 29.8779 1.38106 28.6829 2.32856 27.703C3.28972 26.709 4.68554 25.9425 6.20949 25.3841C7.19841 25.0217 8.02308 25.082 8.78954 25.3774C9.57938 25.6819 10.3237 26.2418 11.1268 26.9209C11.3179 27.0826 11.5123 27.2513 11.7109 27.4237L11.7117 27.4245C13.1306 28.6565 14.7628 30.0737 16.9621 30.4089C21.7331 31.1361 24.7492 30.6121 29.2181 28.8808C32.16 27.7411 33.7604 26.4797 35.6768 24.9693L35.6769 24.9693C36.3355 24.4502 37.0314 23.9018 37.8318 23.3187L37.8432 23.3105L37.8541 23.3016C40.1627 21.4127 41.8281 19.7202 43.3809 18.1422C43.6946 17.8234 44.0037 17.5092 44.3126 17.199C46.1494 15.3549 47.9951 13.6334 50.8068 11.8359C55.9439 8.55169 61.1011 6.86891 66.8471 4.99401L66.8473 4.99394L66.8491 4.99337L66.851 4.99273C67.4585 4.79451 68.0726 4.59414 68.6939 4.3895C69.8283 4.01586 70.8982 3.6373 71.9216 3.27523C77.1601 1.42177 81.1768 0.000581667 86.3668 1.8846ZM11.5375 37.1117C10.261 37.111 8.93292 37.0435 7.49219 36.9125C5.77619 36.7565 4.04066 36.3273 2.6684 35.4764C1.27997 34.6155 0.260651 33.3176 0.0409627 31.4737C-0.176391 29.6495 0.489365 28.1665 1.60967 27.0079C2.71632 25.8634 4.2672 25.0308 5.86542 24.4451C7.0918 23.9957 8.16668 24.0656 9.14921 24.4444C9.39236 24.5381 9.62877 24.6504 9.85941 24.7769C9.88583 24.7387 9.91427 24.6979 9.94469 24.6549L10.7611 25.2323C10.7518 25.2456 10.7426 25.2586 10.7337 25.2713C10.7236 25.2857 10.7137 25.2998 10.7042 25.3136C11.0715 25.5763 11.426 25.8643 11.7725 26.1573C11.9776 26.3308 12.1805 26.506 12.3825 26.6805L12.3825 26.6805C13.8233 27.9249 15.2207 29.1319 17.1128 29.4203C21.6795 30.1164 24.518 29.6293 28.8568 27.9484C31.6491 26.8666 33.1082 25.717 34.9869 24.2369L34.987 24.2368L34.9872 24.2367C35.1883 24.0782 35.3942 23.916 35.607 23.7497L35.8669 23.2564C35.9545 23.3025 36.0293 23.3423 36.0902 23.3748C36.4463 23.1009 36.8239 22.8159 37.2316 22.5188C39.4896 20.6704 41.1114 19.0224 42.6601 17.4488C42.9762 17.1276 43.2893 16.8095 43.6041 16.4934C45.4647 14.6253 47.369 12.8467 50.2681 10.9933C55.5183 7.63687 60.7966 5.91535 66.5277 4.04615L66.5278 4.04614L66.5278 4.04613C67.1402 3.8464 67.7578 3.64498 68.381 3.4397C69.4653 3.08258 70.5038 2.71358 71.5108 2.35576C76.7612 0.490167 81.1552 -1.07112 86.7081 0.944619C89.4588 1.94316 91.4288 3.03721 92.6382 4.6904C93.857 6.35641 94.2409 8.5015 94.0363 11.4492C93.6653 16.7931 89.8915 20.666 84.6071 21.4097C82.0269 21.7729 79.903 20.9665 78.0631 19.708C76.7679 18.8221 75.5922 17.6955 74.4891 16.5868L74.4163 16.6422L74.381 16.6689L73.7782 15.871L73.7801 15.8696C73.5793 15.666 73.3807 15.4649 73.1839 15.2681C71.6398 13.724 70.3831 12.5585 68.9362 11.7511C67.5039 10.9519 65.8568 10.4891 63.5214 10.4143C61.4569 10.3482 59.9806 10.3593 58.4262 10.7373C56.8724 11.1151 55.207 11.8687 52.7982 13.3412C51.6539 14.0408 50.5807 14.8354 49.5534 15.696C49.608 15.7408 49.6742 15.7942 49.7515 15.8549L49.1339 16.6414C48.9982 16.5348 48.8925 16.4479 48.82 16.3869L48.7858 16.358C46.9975 17.9436 45.3336 19.7142 43.6515 21.506L43.6262 21.5329C40.7846 24.5599 37.8884 27.6449 34.2984 29.8411L33.9145 30.076C29.9559 32.4993 27.3181 34.114 22.6705 35.3966C18.6217 36.5139 15.4927 37.0623 12.0375 37.1085V37.9146H11.5375V37.1117ZM72.852 16.5417C72.5654 16.7408 72.2447 16.9561 71.9 17.1754L72.4368 18.0191C72.7943 17.7916 73.1264 17.5687 73.4225 17.363L72.852 16.5417ZM70.9251 17.7645C70.5998 17.9502 70.2646 18.1302 69.9259 18.2971L70.3679 19.1941C70.7274 19.017 71.0807 18.8271 71.421 18.6329L70.9251 17.7645ZM68.9021 18.752C68.727 18.8206 68.5534 18.8833 68.382 18.9394C68.2281 18.9897 68.0726 19.0373 67.9154 19.0822L68.1901 20.0437C68.3591 19.9955 68.5267 19.9442 68.6929 19.8898C68.884 19.8273 69.0756 19.758 69.2666 19.6832L68.9021 18.752ZM66.9651 19.3175C66.6473 19.3848 66.3244 19.4423 65.9972 19.4906L66.1433 20.4799C66.4899 20.4287 66.8332 20.3676 67.1722 20.2958L66.9651 19.3175ZM65.0178 19.6071C64.6917 19.6369 64.3625 19.6585 64.0307 19.6723L64.0723 20.6715C64.4198 20.657 64.7656 20.6344 65.1089 20.603L65.0178 19.6071ZM63.0391 19.691C62.7091 19.69 62.3776 19.682 62.0454 19.6675L62.0017 20.6665C62.3469 20.6816 62.6919 20.69 63.036 20.691L63.0391 19.691ZM61.0518 19.6052C60.7207 19.5784 60.3897 19.5457 60.0595 19.5075L59.9447 20.5009C60.2858 20.5403 60.6282 20.5742 60.971 20.602L61.0518 19.6052ZM59.0698 19.3769C58.7393 19.328 58.4103 19.2741 58.0838 19.2158L57.9078 20.2002C58.2439 20.2602 58.5827 20.3157 58.9234 20.3662L59.0698 19.3769ZM57.1019 19.0257C56.7727 18.9572 56.4469 18.8845 56.1251 18.8083L55.8946 19.7813C56.225 19.8596 56.5597 19.9343 56.8981 20.0047L57.1019 19.0257ZM55.1546 18.5645C54.9923 18.5215 54.8315 18.4776 54.6721 18.4331C54.5097 18.3877 54.3491 18.3386 54.1907 18.2864L53.8778 19.2362C54.0501 19.293 54.2252 19.3465 54.4028 19.3962C54.5665 19.4419 54.7316 19.4869 54.8981 19.5311L55.1546 18.5645ZM53.245 17.9302C52.9248 17.7947 52.6174 17.6496 52.3254 17.5003L51.87 18.3906C52.1816 18.5499 52.5109 18.7053 52.8552 18.8511L53.245 17.9302ZM51.4338 17.0064C51.1162 16.8169 50.8278 16.6301 50.5738 16.4565L50.0095 17.282C50.2786 17.466 50.5843 17.664 50.9214 17.8651L51.4338 17.0064ZM34.2036 22.417C34.5081 22.5645 34.7884 22.7036 35.038 22.8295L34.5877 23.7223C34.3425 23.5987 34.0669 23.462 33.7677 23.3171L34.2036 22.417ZM32.5158 21.6347C32.8079 21.7638 33.0916 21.8926 33.3636 22.0187L32.9428 22.9259C32.6759 22.8021 32.3977 22.6758 32.1116 22.5494L32.5158 21.6347ZM30.7922 20.9173C31.0839 21.0305 31.3737 21.1476 31.6588 21.2665L31.2739 22.1894C30.9957 22.0734 30.7136 21.9595 30.4303 21.8495L30.7922 20.9173ZM29.0207 20.2936C29.316 20.3853 29.6147 20.4851 29.9137 20.5909L29.5802 21.5337C29.292 21.4317 29.0057 21.3361 28.7243 21.2487L29.0207 20.2936ZM27.6432 19.9259C27.7961 19.959 27.9511 19.9955 28.1077 20.0352L27.8624 21.0046C27.7161 20.9676 27.5724 20.9337 27.4317 20.9033C27.2616 20.8665 27.0913 20.8309 26.9209 20.7966L27.1181 19.8163C27.2934 19.8515 27.4684 19.8881 27.6432 19.9259ZM24.9988 19.4601C25.3538 19.5074 25.7084 19.5611 26.0623 19.6208L25.896 20.6069C25.5529 20.549 25.2098 20.497 24.8669 20.4513L24.9988 19.4601ZM22.8525 19.2589C23.2112 19.2776 23.57 19.3042 23.9286 19.3381L23.8346 20.3336C23.4893 20.301 23.1445 20.2755 22.8003 20.2575L22.8525 19.2589ZM20.6893 19.2465C21.0497 19.2309 21.4107 19.2246 21.772 19.2269L21.7656 20.2268C21.4202 20.2246 21.0758 20.2307 20.7326 20.2456L20.6893 19.2465ZM18.529 19.4579C18.8873 19.4022 19.2468 19.3572 19.6071 19.3222L19.7039 20.3175C19.362 20.3507 19.0215 20.3934 18.6826 20.4461L18.529 19.4579ZM16.4023 19.9233C16.7529 19.823 17.1053 19.7346 17.4591 19.6574L17.6724 20.6344C17.3388 20.7072 17.007 20.7905 16.6771 20.8848L16.4023 19.9233ZM14.8532 20.4498C15.0229 20.3825 15.1932 20.3183 15.364 20.2571L15.7013 21.1985C15.5409 21.256 15.381 21.3163 15.2217 21.3794C15.0585 21.4441 14.8977 21.516 14.7396 21.5943L14.2962 20.6979C14.4774 20.6083 14.6632 20.5251 14.8532 20.4498ZM12.3102 22.0351C12.6046 21.783 12.9205 21.5372 13.2562 21.3087L13.8189 22.1354C13.5174 22.3406 13.2307 22.5634 12.9606 22.7946L12.3102 22.0351ZM10.6617 23.7216C10.8903 23.4463 11.1537 23.1485 11.4486 22.8456L12.1652 23.543C11.891 23.8248 11.6451 24.1027 11.4309 24.3605L10.6617 23.7216Z" fill="black"/>
</svg>
